<?xml version="1.0" encoding="utf-8"?>
<!-- Generated by IcoMoon.io -->
<!DOCTYPE svg PUBLIC "-//W3C//DTD SVG 1.1//EN" "http://www.w3.org/Graphics/SVG/1.1/DTD/svg11.dtd">
<svg version="1.1" xmlns="http://www.w3.org/2000/svg" xmlns:xlink="http://www.w3.org/1999/xlink" width="30" height="32" viewBox="0 0 30 32">
<path fill="#000" d="M30 10.529q-1.275 1.865-3.084 3.179 0.019 0.267 0.019 0.799 0 2.474-0.724 4.94t-2.199 4.73-3.512 4.007-4.911 2.779-6.149 1.037q-5.158 0-9.441-2.76 0.666 0.076 1.485 0.076 4.283 0 7.633-2.627-1.999-0.038-3.578-1.228t-2.17-3.036q0.628 0.095 1.161 0.095 0.819 0 1.618-0.209-2.132-0.438-3.532-2.122t-1.4-3.912v-0.076q1.294 0.724 2.779 0.78-1.257-0.838-1.999-2.189t-0.742-2.931q0-1.675 0.838-3.103 2.304 2.837 5.606 4.54t7.072 1.894q-0.152-0.724-0.152-1.408 0-2.551 1.799-4.349t4.349-1.799q2.665 0 4.492 1.941 2.074-0.4 3.902-1.485-0.705 2.189-2.703 3.389 1.771-0.191 3.54-0.952z"></path>
</svg>
